<?xml version="1.0" encoding="utf-8"?>
<!-- Generator: Adobe Illustrator 24.0.3, SVG Export Plug-In . SVG Version: 6.00 Build 0)  -->
<svg version="1.1" id="Camada_1" xmlns="http://www.w3.org/2000/svg" xmlns:xlink="http://www.w3.org/1999/xlink" x="0px" y="0px"
	 viewBox="0 0 524 192" style="enable-background:new 0 0 524 192;" xml:space="preserve">
<style type="text/css">
	.st0{fill-rule:evenodd;clip-rule:evenodd;fill:#FFFFFF;}
	.st1{fill-rule:evenodd;clip-rule:evenodd;fill:#1A1C30;}
</style>
<title>App Store</title>
<desc>Created with Sketch.</desc>
<g id="Page-1">
	<g id="Badges" transform="translate(-138.000000, -320.000000)">
		<g id="App-Store" transform="translate(138.000000, 320.000000)">
			<path id="btn" class="st0" d="M12,0h500c6.6,0,12,5.4,12,12v168c0,6.6-5.4,12-12,12H12c-6.6,0-12-5.4-12-12V12C0,5.4,5.4,0,12,0z
				"/>
			<g id="Group" transform="translate(42.592593, 39.296296)">
				<path id="Shape" class="st1" d="M69.2,54.9c-0.1-12.8,10.5-19.1,11-19.4c-6-8.8-15.3-10-18.6-10.1c-7.8-0.8-15.4,4.7-19.4,4.7
					c-4.1,0-10.2-4.6-16.8-4.5c-8.5,0.1-16.5,5.1-20.9,12.7C-4.6,54,2.1,77,10.8,89.6c4.3,6.2,9.4,13.1,16,12.8
					c6.5-0.3,8.9-4.1,16.7-4.1c7.7,0,10,4.1,16.7,4c6.9-0.1,11.3-6.2,15.5-12.4c5-7.1,7-14.1,7.1-14.4
					C82.6,75.3,69.3,70.3,69.2,54.9L69.2,54.9z"/>
				<path id="Shape_1_" class="st1" d="M56.4,17.1c3.5-4.4,5.9-10.3,5.2-16.3c-5,0.2-11.3,3.5-15,7.7c-3.2,3.8-6.1,9.9-5.3,15.7
					C47,24.7,52.8,21.4,56.4,17.1L56.4,17.1z"/>
			</g>
			<g id="Group_1_" transform="translate(159.022792, 87.068376)">
				<path id="Shape_2_" class="st1" d="M46.4,53.8h-9l-5-15.6H15.2l-4.7,15.6H1.6l17.1-53h10.5L46.4,53.8L46.4,53.8z M30.9,31.7
					l-4.5-13.8c-0.5-1.4-1.4-4.7-2.7-10h-0.2c-0.5,2.3-1.4,5.6-2.5,10l-4.4,13.8H30.9L30.9,31.7z"/>
				<path id="Shape_3_" class="st1" d="M90.2,34.2c0,6.5-1.8,11.6-5.3,15.4c-3.1,3.4-7.1,5-11.7,5c-5,0-8.6-1.8-10.8-5.4h-0.2v20.1
					h-8.5V28.1c0-4.1-0.1-8.3-0.3-12.6h7.5l0.5,6.1h0.2c2.8-4.6,7.1-6.8,12.9-6.8c4.5,0,8.3,1.8,11.3,5.3
					C88.7,23.7,90.2,28.4,90.2,34.2L90.2,34.2z M81.6,34.5c0-3.7-0.8-6.8-2.5-9.2c-1.8-2.5-4.3-3.8-7.4-3.8c-2.1,0-4,0.7-5.7,2.1
					c-1.7,1.4-2.8,3.2-3.3,5.5c-0.3,1.1-0.4,1.9-0.4,2.6V38c0,2.8,0.9,5.1,2.6,7c1.7,1.9,3.9,2.9,6.6,2.9c3.2,0,5.7-1.2,7.5-3.7
					C80.7,41.8,81.6,38.5,81.6,34.5L81.6,34.5z"/>
				<path id="Shape_4_" class="st1" d="M134.2,34.2c0,6.5-1.8,11.6-5.3,15.4c-3.1,3.4-7,5-11.7,5c-5,0-8.6-1.8-10.8-5.4h-0.2v20.1
					h-8.5V28.1c0-4.1-0.1-8.3-0.3-12.6h7.5l0.5,6.1h0.2c2.8-4.6,7.1-6.8,12.9-6.8c4.5,0,8.3,1.8,11.3,5.3
					C132.6,23.7,134.2,28.4,134.2,34.2L134.2,34.2z M125.5,34.5c0-3.7-0.8-6.8-2.5-9.2c-1.8-2.5-4.3-3.8-7.4-3.8
					c-2.1,0-4,0.7-5.7,2.1c-1.7,1.4-2.8,3.2-3.3,5.5c-0.3,1.1-0.4,1.9-0.4,2.6V38c0,2.8,0.9,5.1,2.5,7c1.7,1.9,3.9,2.9,6.6,2.9
					c3.2,0,5.7-1.2,7.5-3.7C124.6,41.8,125.5,38.5,125.5,34.5L125.5,34.5z"/>
				<path id="Shape_5_" class="st1" d="M183.3,38.9c0,4.5-1.6,8.2-4.7,11c-3.5,3.1-8.3,4.6-14.4,4.6c-5.7,0-10.3-1.1-13.7-3.3l2-7.1
					c3.7,2.3,7.8,3.4,12.3,3.4c3.2,0,5.7-0.7,7.5-2.2c1.8-1.4,2.7-3.4,2.7-5.8c0-2.1-0.7-4-2.2-5.4c-1.5-1.5-3.9-2.8-7.3-4.1
					c-9.3-3.5-13.9-8.5-13.9-15.2c0-4.4,1.6-7.9,4.9-10.7c3.2-2.8,7.6-4.2,13-4.2c4.8,0,8.8,0.8,12,2.5l-2.1,6.9
					c-3-1.6-6.4-2.4-10.1-2.4c-3,0-5.3,0.7-7,2.2c-1.4,1.3-2.1,2.9-2.1,4.8c0,2.1,0.8,3.8,2.4,5.2c1.4,1.3,4,2.6,7.7,4.1
					c4.6,1.8,7.9,4,10.1,6.4C182.2,32.2,183.3,35.2,183.3,38.9L183.3,38.9z"/>
				<path id="Shape_6_" class="st1" d="M211.3,21.9H202v18.5c0,4.7,1.6,7.1,5,7.1c1.5,0,2.8-0.1,3.8-0.4l0.2,6.4
					c-1.7,0.6-3.9,0.9-6.6,0.9c-3.4,0-6-1-7.9-3.1c-1.9-2-2.8-5.5-2.8-10.3V21.9h-5.6v-6.4h5.6v-7L202,6v9.5h9.4V21.9L211.3,21.9z"
					/>
				<path id="Shape_7_" class="st1" d="M253.6,34.3c0,5.9-1.7,10.7-5,14.5c-3.5,3.9-8.2,5.8-14,5.8c-5.6,0-10.1-1.9-13.4-5.6
					c-3.3-3.7-5-8.4-5-14.1c0-5.9,1.7-10.8,5.1-14.5c3.4-3.8,8.1-5.7,13.9-5.7c5.6,0,10.1,1.9,13.5,5.6
					C251.9,24,253.6,28.6,253.6,34.3L253.6,34.3z M244.7,34.6c0-3.5-0.8-6.5-2.3-9.1c-1.8-3-4.3-4.6-7.6-4.6c-3.4,0-6,1.5-7.8,4.6
					c-1.5,2.5-2.3,5.6-2.3,9.2c0,3.5,0.8,6.5,2.3,9.1c1.8,3,4.4,4.6,7.7,4.6c3.2,0,5.8-1.6,7.6-4.6C244,41.2,244.7,38.1,244.7,34.6
					L244.7,34.6z"/>
				<path id="Shape_8_" class="st1" d="M281.1,23c-0.8-0.2-1.7-0.2-2.7-0.2c-3,0-5.3,1.1-6.9,3.4c-1.4,2-2.1,4.5-2.1,7.5v20h-8.5
					l0.1-26.2c0-4.4-0.1-8.4-0.3-12h7.4l0.3,7.3h0.2c0.9-2.5,2.3-4.5,4.2-6.1c1.9-1.4,3.9-2,6.1-2c0.8,0,1.5,0.1,2.1,0.2V23
					L281.1,23z"/>
				<path id="Shape_9_" class="st1" d="M319.1,32.9c0,1.5-0.1,2.8-0.3,3.8h-25.5c0.1,3.8,1.3,6.7,3.7,8.7c2.1,1.8,4.9,2.7,8.3,2.7
					c3.8,0,7.2-0.6,10.3-1.8l1.3,5.9c-3.6,1.6-7.9,2.4-12.8,2.4c-5.9,0-10.6-1.7-14-5.2c-3.4-3.5-5.1-8.2-5.1-14
					c0-5.8,1.6-10.6,4.7-14.4c3.3-4.1,7.8-6.1,13.4-6.1c5.5,0,9.7,2,12.5,6.1C318,24.1,319.1,28.1,319.1,32.9L319.1,32.9z M311,30.6
					c0.1-2.5-0.5-4.7-1.6-6.5c-1.5-2.4-3.7-3.5-6.8-3.5c-2.8,0-5,1.2-6.8,3.5c-1.4,1.8-2.3,4-2.5,6.6L311,30.6L311,30.6z"/>
			</g>
			<g id="Group_2_" transform="translate(163.003799, 39.296296)">
				<path id="Shape_10_" class="st1" d="M24.1,16c0,4.7-1.4,8.2-4.2,10.6c-2.6,2.2-6.3,3.3-11.1,3.3c-2.4,0-4.4-0.1-6.1-0.3V3.9
					c2.2-0.4,4.6-0.5,7.2-0.5c4.6,0,8,1,10.3,3C22.8,8.6,24.1,11.8,24.1,16L24.1,16z M19.7,16.1c0-3-0.8-5.4-2.4-7
					c-1.6-1.6-4-2.4-7.1-2.4c-1.3,0-2.4,0.1-3.4,0.3v19.5c0.5,0.1,1.5,0.1,2.8,0.1c3.2,0,5.7-0.9,7.4-2.7
					C18.8,22.1,19.7,19.5,19.7,16.1L19.7,16.1z"/>
				<path id="Shape_11_" class="st1" d="M47.4,20.1c0,2.9-0.8,5.3-2.5,7.1c-1.7,1.9-4,2.9-6.9,2.9c-2.8,0-4.9-0.9-6.6-2.7
					c-1.6-1.8-2.4-4.1-2.4-6.9c0-2.9,0.8-5.3,2.5-7.1c1.7-1.9,4-2.8,6.8-2.8c2.8,0,5,0.9,6.6,2.7C46.6,15,47.4,17.2,47.4,20.1
					L47.4,20.1z M43.1,20.2c0-1.7-0.4-3.2-1.1-4.5c-0.9-1.5-2.1-2.2-3.7-2.2c-1.7,0-2.9,0.7-3.8,2.2c-0.7,1.2-1.1,2.7-1.1,4.5
					c0,1.7,0.4,3.2,1.1,4.5c0.9,1.5,2.2,2.2,3.8,2.2c1.6,0,2.8-0.8,3.7-2.3C42.7,23.4,43.1,21.9,43.1,20.2L43.1,20.2z"/>
				<path id="Shape_12_" class="st1" d="M78.7,10.8l-5.9,18.8H69l-2.4-8.1c-0.6-2-1.1-4.1-1.5-6.1H65c-0.4,2.1-0.9,4.1-1.5,6.1
					l-2.6,8.1H57l-5.5-18.8h4.3l2.1,8.9c0.5,2.1,0.9,4.1,1.3,6h0.1c0.3-1.6,0.8-3.6,1.5-6l2.7-9h3.4l2.6,8.8
					c0.6,2.1,1.1,4.2,1.5,6.2H71c0.3-1.9,0.7-4,1.3-6.2l2.3-8.8L78.7,10.8L78.7,10.8z"/>
				<path id="Shape_13_" class="st1" d="M100.3,29.6h-4.2V18.8c0-3.3-1.3-5-3.8-5c-1.2,0-2.2,0.5-3,1.4c-0.8,0.9-1.2,2-1.2,3.2v11.1
					H84V16.2c0-1.6-0.1-3.4-0.2-5.4h3.7l0.2,2.9h0.1c0.5-0.9,1.2-1.7,2.2-2.3c1.1-0.7,2.4-1.1,3.8-1.1c1.8,0,3.2,0.6,4.4,1.7
					c1.4,1.4,2.2,3.5,2.2,6.2V29.6L100.3,29.6z"/>
				<polygon id="Shape_14_" class="st1" points="111.8,29.6 107.7,29.6 107.7,2.2 111.8,2.2 				"/>
				<path id="Shape_15_" class="st1" d="M136.4,20.1c0,2.9-0.8,5.3-2.5,7.1c-1.7,1.9-4,2.9-6.9,2.9c-2.8,0-5-0.9-6.6-2.7
					c-1.6-1.8-2.4-4.1-2.4-6.9c0-2.9,0.8-5.3,2.5-7.1c1.7-1.9,4-2.8,6.8-2.8c2.8,0,5,0.9,6.6,2.7C135.6,15,136.4,17.2,136.4,20.1
					L136.4,20.1z M132,20.2c0-1.7-0.4-3.2-1.1-4.5c-0.9-1.5-2.1-2.2-3.7-2.2c-1.7,0-3,0.7-3.8,2.2c-0.7,1.2-1.1,2.7-1.1,4.5
					c0,1.7,0.4,3.2,1.1,4.5c0.9,1.5,2.2,2.2,3.8,2.2c1.6,0,2.8-0.8,3.7-2.3C131.7,23.4,132,21.9,132,20.2L132,20.2z"/>
				<path id="Shape_16_" class="st1" d="M156.6,29.6h-3.7l-0.3-2.2h-0.1c-1.3,1.7-3.1,2.6-5.5,2.6c-1.8,0-3.2-0.6-4.3-1.7
					c-1-1-1.5-2.3-1.5-3.8c0-2.3,1-4,2.9-5.3c1.9-1.2,4.6-1.8,8.1-1.8v-0.4c0-2.5-1.3-3.7-3.9-3.7c-1.9,0-3.5,0.5-4.9,1.4l-0.8-2.7
					c1.7-1.1,3.9-1.6,6.4-1.6c4.9,0,7.4,2.6,7.4,7.8v6.9C156.3,27,156.4,28.5,156.6,29.6L156.6,29.6z M152.2,23.1v-2.9
					c-4.6-0.1-6.9,1.2-6.9,3.8c0,1,0.3,1.7,0.8,2.2c0.5,0.5,1.2,0.7,2,0.7c0.9,0,1.8-0.3,2.6-0.9c0.8-0.6,1.3-1.3,1.4-2.2
					C152.2,23.7,152.2,23.4,152.2,23.1L152.2,23.1z"/>
				<path id="Shape_17_" class="st1" d="M180.3,29.6h-3.7l-0.2-3h-0.1c-1.2,2.3-3.2,3.4-6,3.4c-2.3,0-4.1-0.9-5.6-2.7
					c-1.5-1.8-2.2-4.1-2.2-6.9c0-3,0.8-5.5,2.4-7.4c1.6-1.8,3.5-2.6,5.8-2.6c2.5,0,4.3,0.8,5.3,2.5h0.1V2.2h4.2v22.3
					C180.1,26.4,180.2,28,180.3,29.6L180.3,29.6z M176,21.7v-3.1c0-0.5,0-1-0.1-1.3c-0.2-1-0.7-1.8-1.5-2.5c-0.8-0.7-1.7-1-2.8-1
					c-1.6,0-2.8,0.6-3.7,1.9c-0.9,1.2-1.3,2.8-1.3,4.7c0,1.9,0.4,3.4,1.3,4.5c0.9,1.2,2.1,1.9,3.6,1.9c1.4,0,2.5-0.5,3.3-1.5
					C175.6,24.2,176,23,176,21.7L176,21.7z"/>
				<path id="Shape_18_" class="st1" d="M216,20.1c0,2.9-0.8,5.3-2.5,7.1c-1.7,1.9-4,2.9-6.9,2.9c-2.8,0-4.9-0.9-6.6-2.7
					c-1.6-1.8-2.4-4.1-2.4-6.9c0-2.9,0.8-5.3,2.5-7.1c1.7-1.9,4-2.8,6.8-2.8c2.8,0,5,0.9,6.6,2.7C215.2,15,216,17.2,216,20.1
					L216,20.1z M211.6,20.2c0-1.7-0.4-3.2-1.1-4.5c-0.9-1.5-2.1-2.2-3.7-2.2c-1.7,0-2.9,0.7-3.8,2.2c-0.7,1.2-1.1,2.7-1.1,4.5
					c0,1.7,0.4,3.2,1.1,4.5c0.9,1.5,2.2,2.2,3.8,2.2c1.6,0,2.8-0.8,3.7-2.3C211.2,23.4,211.6,21.9,211.6,20.2L211.6,20.2z"/>
				<path id="Shape_19_" class="st1" d="M238.4,29.6h-4.2V18.8c0-3.3-1.3-5-3.8-5c-1.2,0-2.2,0.5-3,1.4c-0.8,0.9-1.2,2-1.2,3.2v11.1
					h-4.2V16.2c0-1.6,0-3.4-0.1-5.4h3.7l0.2,2.9h0.1c0.5-0.9,1.2-1.7,2.2-2.3c1.1-0.7,2.4-1.1,3.8-1.1c1.7,0,3.2,0.6,4.4,1.7
					c1.4,1.4,2.2,3.5,2.2,6.2V29.6L238.4,29.6z"/>
				<path id="Shape_20_" class="st1" d="M266.5,13.9h-4.6v9.1c0,2.3,0.8,3.5,2.4,3.5c0.7,0,1.4-0.1,1.9-0.2l0.1,3.2
					c-0.8,0.3-1.9,0.5-3.2,0.5c-1.6,0-2.9-0.5-3.9-1.5c-0.9-1-1.4-2.7-1.4-5.1v-9.5H255v-3.1h2.7V7.4l4.1-1.2v4.7h4.6L266.5,13.9
					L266.5,13.9z"/>
				<path id="Shape_21_" class="st1" d="M288.6,29.6h-4.2V18.9c0-3.4-1.3-5-3.8-5c-1.9,0-3.3,1-4,2.9c-0.1,0.4-0.2,0.9-0.2,1.5v11.3
					h-4.2V2.2h4.2v11.3h0.1c1.3-2.1,3.2-3.1,5.6-3.1c1.7,0,3.2,0.6,4.3,1.7c1.4,1.4,2.1,3.5,2.1,6.3V29.6L288.6,29.6z"/>
				<path id="Shape_22_" class="st1" d="M311.3,19.3c0,0.7-0.1,1.4-0.2,1.9h-12.5c0.1,1.9,0.7,3.3,1.8,4.2c1.1,0.9,2.4,1.3,4.1,1.3
					c1.9,0,3.5-0.3,5.1-0.9l0.7,2.9c-1.8,0.8-3.9,1.2-6.3,1.2c-2.9,0-5.2-0.9-6.9-2.6c-1.7-1.7-2.5-4-2.5-6.9c0-2.8,0.8-5.2,2.3-7.1
					c1.6-2,3.8-3,6.6-3c2.7,0,4.7,1,6.1,3C310.8,15,311.3,17,311.3,19.3L311.3,19.3z M307.4,18.2c0-1.2-0.2-2.3-0.8-3.2
					c-0.7-1.2-1.8-1.7-3.3-1.7c-1.4,0-2.5,0.6-3.3,1.7c-0.7,0.9-1.1,2-1.2,3.2H307.4L307.4,18.2z"/>
			</g>
		</g>
	</g>
</g>
</svg>
