<?xml version="1.0" encoding="utf-8"?>
<!-- Generator: Adobe Illustrator 24.3.0, SVG Export Plug-In . SVG Version: 6.00 Build 0)  -->
<svg version="1.1" id="Camada_1" xmlns="http://www.w3.org/2000/svg" xmlns:xlink="http://www.w3.org/1999/xlink" x="0px" y="0px"
	 viewBox="0 0 116.6 29" style="enable-background:new 0 0 116.6 29;" xml:space="preserve">
<style type="text/css">
	.st0{fill:#FFFFFF;}
	.st1{fill:url(#SVGID_1_);}
	.st2{fill:url(#SVGID_2_);}
	.st3{opacity:0.14;clip-path:url(#SVGID_4_);fill:url(#SVGID_5_);enable-background:new    ;}
</style>
<g>
	<g>
		<path class="st0" d="M29,25.2c0,2.1-1.7,3.8-3.8,3.8H3.8C1.7,29,0,27.3,0,25.2V3.8C0,1.7,1.7,0,3.8,0h21.4C27.3,0,29,1.7,29,3.8
			V25.2z"/>
	</g>
	<g id="logo">
		
			<linearGradient id="SVGID_1_" gradientUnits="userSpaceOnUse" x1="19.5" y1="780.9915" x2="19.5" y2="771.0256" gradientTransform="matrix(1 0 0 -1 0 795.4455)">
			<stop  offset="2.717173e-07" style="stop-color:#FF4681"/>
			<stop  offset="1" style="stop-color:#9B44F6"/>
		</linearGradient>
		<polygon class="st1" points="24.5,24.4 14.5,24.4 24.5,14.5 		"/>
		
			<linearGradient id="SVGID_2_" gradientUnits="userSpaceOnUse" x1="-0.1408" y1="785.7363" x2="19.7907" y2="765.8048" gradientTransform="matrix(1 0 0 -1 0 795.4455)">
			<stop  offset="9.430187e-07" style="stop-color:#FF4681"/>
			<stop  offset="0.7392" style="stop-color:#9B44F6"/>
		</linearGradient>
		<polygon class="st2" points="24.5,24.4 4.6,24.4 4.6,4.5 		"/>
	</g>
	<g>
		<g>
			<g>
				<g>
					<g>
						<g>
							<defs>
								<polygon id="SVGID_3_" points="24.5,24.5 14.5,24.5 24.5,14.6 								"/>
							</defs>
							<clipPath id="SVGID_4_">
								<use xlink:href="#SVGID_3_"  style="overflow:visible;"/>
							</clipPath>
							
								<linearGradient id="SVGID_5_" gradientUnits="userSpaceOnUse" x1="-568.1569" y1="619.6993" x2="-565.7643" y2="617.3068" gradientTransform="matrix(0.8685 1.214 0.8089 -0.5787 14.0815 1067.7629)">
								<stop  offset="9.430187e-07" style="stop-color:#000000"/>
								<stop  offset="1" style="stop-color:#000000"/>
							</linearGradient>
							<polygon class="st3" points="24.5,24.5 19.5,19.5 20.4,18.7 							"/>
						</g>
					</g>
				</g>
			</g>
		</g>
	</g>
</g>
<g id="brand_name_1_">
	<path class="st0" d="M56.5,4.8h3.2v19.5h-3.2V4.8z"/>
	<path class="st0" d="M76.9,18.1H66c0.2,1,0.7,1.8,1.5,2.4c0.8,0.6,1.8,0.9,3,0.9c1.5,0,2.8-0.5,3.8-1.5l1.9,1.9
		c-0.6,0.7-1.5,1.4-2.5,1.8c-1,0.4-2,0.6-3.2,0.6c-1.5,0-2.9-0.3-4-0.9c-1.2-0.6-2.1-1.5-2.7-2.5c-0.6-1.1-0.9-2.3-0.9-3.7
		c0-1.4,0.3-2.6,0.9-3.6c0.6-1.1,1.5-1.9,2.6-2.5c1.1-0.6,2.3-0.9,3.7-0.9c1.4,0,2.6,0.3,3.6,0.9c1.1,0.6,1.9,1.4,2.5,2.5
		c0.6,1.1,0.9,2.3,0.9,3.8C76.9,17.4,76.9,17.7,76.9,18.1z M67.3,13.5C66.6,14.1,66.1,15,66,16h7.9c-0.1-1-0.6-1.8-1.3-2.4
		c-0.7-0.6-1.6-0.9-2.6-0.9C68.9,12.6,68,12.9,67.3,13.5z"/>
	<path class="st0" d="M106.1,18.1H95.2c0.2,1,0.7,1.8,1.5,2.4c0.8,0.6,1.8,0.9,3,0.9c1.5,0,2.8-0.5,3.8-1.5l1.9,1.9
		c-0.6,0.7-1.5,1.4-2.5,1.8c-1,0.4-2,0.6-3.2,0.6c-1.5,0-2.9-0.3-4-0.9c-1.2-0.6-2.1-1.5-2.7-2.5c-0.6-1.1-0.9-2.3-0.9-3.7
		c0-1.4,0.3-2.6,0.9-3.6s1.5-1.9,2.6-2.5c1.1-0.6,2.3-0.9,3.7-0.9c1.4,0,2.6,0.3,3.6,0.9c1.1,0.6,1.9,1.4,2.5,2.5
		c0.6,1.1,0.9,2.3,0.9,3.8C106.1,17.4,106.1,17.7,106.1,18.1z M96.5,13.5c-0.7,0.6-1.2,1.4-1.3,2.5h7.9c-0.1-1-0.6-1.8-1.3-2.4
		c-0.7-0.6-1.6-0.9-2.6-0.9C98.1,12.6,97.2,12.9,96.5,13.5z"/>
	<path class="st0" d="M92.1,10L86,24.2h-3.2L76.6,10H80l4.5,10.4L89,10L92.1,10L92.1,10z"/>
	<polygon class="st0" points="49.8,10 53.8,10 45,18.9 43,16.8 	"/>
	<polyline class="st0" points="43,16.8 45,14.8 54.4,24.2 50.4,24.2 43,16.8 43,16.8 	"/>
	<rect x="40.2" y="4.8" class="st0" width="3.2" height="19.5"/>
	<path class="st0" d="M116.6,10v3.1c-0.3-0.1-0.5-0.1-0.8-0.1c-1.3,0-2.3,0.4-3,1.1c-0.7,0.7-1.1,1.8-1.1,3.2v6.8h-3.3V10h3.2v2.2
		C112.5,10.7,114.2,10,116.6,10z"/>
</g>
</svg>
