<svg id="Layer_1" data-name="Layer 1" xmlns="http://www.w3.org/2000/svg" width="240" height="65" viewBox="0 0 240 65"><defs><style>.cls-1,.cls-2{fill:#fff;}.cls-1{fill-rule:evenodd;}</style></defs><title>Ten-X _CoStar_Logo</title><path class="cls-1" d="M24.33,50.74,17.49,29.19a1.27,1.27,0,0,1,.37-1.27l10.45-8.39a.78.78,0,0,1,1.12.16l7.76,11a1.27,1.27,0,0,1,0,1.33L25,50.83c-.25.37-.57.33-.71-.1"/><path class="cls-1" d="M59.93,64.05,46.23,47A1.22,1.22,0,0,0,45,46.6l-12.5,4a.79.79,0,0,0-.49,1l4.55,12.32a1.22,1.22,0,0,0,1.06.73h22c.44,0,.58-.29.31-.64"/><path class="cls-1" d="M83.09,36.63l-20.47,7.7a1.21,1.21,0,0,0-.73,1.05l0,13.09a.8.8,0,0,0,.81.78l13.12-.5a1.2,1.2,0,0,0,1-.78L83.6,37.12c.13-.42-.11-.64-.51-.49"/><path class="cls-1" d="M62.78,4.4l1,22.4a1.23,1.23,0,0,0,.82,1L77.84,32a.85.85,0,0,0,1-.54l3.81-13a1.2,1.2,0,0,0-.45-1.24L63.45,4.06c-.38-.26-.67-.11-.66.34"/><path class="cls-1" d="M26,14.95l22.57,6.18a1.3,1.3,0,0,0,1.3-.44L58.1,9.44a.83.83,0,0,0-.21-1.17L46.2.49a1.29,1.29,0,0,0-1.37,0l-19,13.68c-.38.27-.32.61.13.74"/><path class="cls-2" d="M198,52.9V51a21.14,21.14,0,0,1-2.13-.09,4.6,4.6,0,0,1-1.28-.28,1.14,1.14,0,0,1-.61-.5,1.54,1.54,0,0,1-.15-.7,2,2,0,0,1,.39-1.26q.39-.52,1-1.22h0l8-9.44L210.8,47q.57.7,1,1.22a2,2,0,0,1,.39,1.26,1.75,1.75,0,0,1-.13.7,1,1,0,0,1-.59.5,4.71,4.71,0,0,1-1.33.28q-.87.09-2.39.09h0V52.9h14.84V51a5.24,5.24,0,0,1-2.44-.5A7.52,7.52,0,0,1,218,48.59h0L206.67,34.53l9.49-11.27a8.18,8.18,0,0,1,2.15-1.94,5.11,5.11,0,0,1,2.42-.5h0V19H208.36v1.87q1.52,0,2.39.09a4.71,4.71,0,0,1,1.33.28,1,1,0,0,1,.59.5,1.75,1.75,0,0,1,.13.7,2,2,0,0,1-.39,1.26q-.39.52-1,1.22h0l-6.4,7.66-6.14-7.66q-.57-.7-1-1.22a2,2,0,0,1-.39-1.26,1.75,1.75,0,0,1,.13-.7,1,1,0,0,1,.59-.5,4.77,4.77,0,0,1,1.35-.28q.89-.09,2.37-.09h0V19H187.12v1.87a5.22,5.22,0,0,1,2.46.5,7.69,7.69,0,0,1,2.11,1.94h0l9.84,12.27-11,13.06a7.92,7.92,0,0,1-2.26,1.92,5.7,5.7,0,0,1-2.57.52h0V52.9ZM183,33.88a.46.46,0,0,1,.48.15h0l5.3,6.83c.11.14.05.25-.12.25h-8.52a.48.48,0,0,1-.41-.29h0L178,35.89a.32.32,0,0,1,.19-.4h0L183,33.88ZM156.51,29.4l-.22,4.27.31-.31A15.82,15.82,0,0,1,158,32.12a14.49,14.49,0,0,1,2.13-1.37,13,13,0,0,1,2.42-1,9.08,9.08,0,0,1,2.57-.37,10.35,10.35,0,0,1,2.94.39,5.77,5.77,0,0,1,2.28,1.26,6,6,0,0,1,1.5,2.22,8.73,8.73,0,0,1,.54,3.26h0V48.93a2.22,2.22,0,0,0,.26,1,1.75,1.75,0,0,0,.72.7,4.15,4.15,0,0,0,1.11.37q.65.13,1.39.22h0v1.7H164.56V51.2l.36,0q.54-.07,1-.17a4.15,4.15,0,0,0,1.11-.37,1.75,1.75,0,0,0,.72-.7,2.4,2.4,0,0,0,.26-1.2h0V36.88a3.74,3.74,0,0,0-1.19-3.06,5.55,5.55,0,0,0-3.37-.89,10.4,10.4,0,0,0-3.79.78,12.66,12.66,0,0,0-3.39,1.92h0V48.93a2.21,2.21,0,0,0,.26,1,1.75,1.75,0,0,0,.72.7,4.15,4.15,0,0,0,1.11.37q.65.13,1.39.22h0v1.7H148.46V51.2l.36,0q.54-.07,1-.17a4.15,4.15,0,0,0,1.11-.37,1.75,1.75,0,0,0,.72-.7,2.4,2.4,0,0,0,.26-1.2h0V34.14l-3.26-1.52v-1L155,29.4Zm-14.39,8.27H130a6.68,6.68,0,0,1,2-4,5.84,5.84,0,0,1,4.22-1.54,7.06,7.06,0,0,1,2.59.44,5.38,5.38,0,0,1,1.87,1.2,4.8,4.8,0,0,1,1.13,1.78,6.28,6.28,0,0,1,.37,2.15Zm-5.27,15.67a12.46,12.46,0,0,0,4-.59,10.2,10.2,0,0,0,3-1.55,8.48,8.48,0,0,0,2-2.15A9.42,9.42,0,0,0,147,46.68h0l-1.26-.57a10.16,10.16,0,0,1-2.92,2.39,9.1,9.1,0,0,1-4.57,1q-4.31,0-6.33-2.61a11.3,11.3,0,0,1-2-7.09h17.06V38.63A10.75,10.75,0,0,0,146.3,35,8,8,0,0,0,144.47,32a8.41,8.41,0,0,0-3-1.94,12.52,12.52,0,0,0-8.81.22A10.43,10.43,0,0,0,129,32.9a12.26,12.26,0,0,0-2.39,4,14.76,14.76,0,0,0-.87,5.2,12.5,12.5,0,0,0,.76,4.4,10.46,10.46,0,0,0,2.2,3.57,10.17,10.17,0,0,0,3.5,2.39,12,12,0,0,0,4.68.87Zm-16.92-.44V51a18.07,18.07,0,0,1-2.18-.2,5,5,0,0,1-1.63-.52,2.45,2.45,0,0,1-1-1,3.85,3.85,0,0,1-.35-1.76h0V21.22h4.31a9.58,9.58,0,0,1,2.92.37,5,5,0,0,1,2,1.18,8.29,8.29,0,0,1,1.52,2.15q.7,1.35,1.61,3.31h1.61L127.95,19H96.78L96,28.22h1.61q.91-2,1.61-3.31a8.29,8.29,0,0,1,1.52-2.15,5,5,0,0,1,2-1.18,9.58,9.58,0,0,1,2.92-.37H110V47.5a3.85,3.85,0,0,1-.35,1.76,2.45,2.45,0,0,1-1,1,5,5,0,0,1-1.63.52,18.07,18.07,0,0,1-2.18.2h0V52.9Z"/></svg>
