<?xml version="1.0" encoding="utf-8"?>
<!-- Generator: Adobe Illustrator 24.0.3, SVG Export Plug-In . SVG Version: 6.00 Build 0)  -->
<svg version="1.1" id="Camada_1" xmlns="http://www.w3.org/2000/svg" xmlns:xlink="http://www.w3.org/1999/xlink" x="0px" y="0px"
	 viewBox="0 0 524 192" style="enable-background:new 0 0 524 192;" xml:space="preserve">
<style type="text/css">
	.st0{fill-rule:evenodd;clip-rule:evenodd;fill:#FFFFFF;}
	.st1{fill:none;}
	.st2{fill-rule:evenodd;clip-rule:evenodd;fill:url(#Shape_5_);}
	.st3{fill-rule:evenodd;clip-rule:evenodd;fill:url(#Shape_6_);}
	.st4{fill-rule:evenodd;clip-rule:evenodd;fill:url(#Shape_7_);}
	.st5{fill-rule:evenodd;clip-rule:evenodd;fill:url(#Shape_8_);}
	.st6{fill-rule:evenodd;clip-rule:evenodd;fill:#1A1C30;}
</style>
<title>Google Play</title>
<desc>Created with Sketch.</desc>
<g id="Page-1">
	<g id="Badges" transform="translate(-138.000000, -88.000000)">
		<g id="Google-Play" transform="translate(138.000000, 88.000000)">
			<path id="btn" class="st0" d="M12,0h500c6.6,0,12,5.4,12,12v168c0,6.6-5.4,12-12,12H12c-6.6,0-12-5.4-12-12V12C0,5.4,5.4,0,12,0z
				"/>
			<g id="icon-_x2B_-Google-play-_x2B_-Get-it-on" transform="translate(34.000000, 40.000000)">
				<g id="google-play-icon" transform="translate(0.000000, 38.000000)">
					<polygon id="Shape" class="st1" points="45.8,44 59.2,30.4 45.8,44 2.6,0.8 45.8,44 2.6,87.2 45.8,44 59.4,57.6 					"/>
					
						<linearGradient id="Shape_5_" gradientUnits="userSpaceOnUse" x1="174.8731" y1="68.3262" x2="174.6071" y2="69.2084" gradientTransform="matrix(56.6 0 0 -43.2 -9860.2002 2984.4001)">
						<stop  offset="0" style="stop-color:#D6FFA1"/>
						<stop  offset="0.3264" style="stop-color:#93E2A7"/>
						<stop  offset="1" style="stop-color:#00A3B5"/>
					</linearGradient>
					<path id="Shape_1_" class="st2" d="M59.2,30.4L6.6,1.6c-1.4-0.8-2.8-1-4-0.6l43.2,43L59.2,30.4L59.2,30.4z"/>
					
						<linearGradient id="Shape_6_" gradientUnits="userSpaceOnUse" x1="171.5043" y1="70.3224" x2="172.6277" y2="68.8122" gradientTransform="matrix(34.3 0 0 -27 -5847.6001 1912.5999)">
						<stop  offset="0" style="stop-color:#FF177B"/>
						<stop  offset="0.6721" style="stop-color:#FFA976"/>
						<stop  offset="1" style="stop-color:#FFEC73"/>
					</linearGradient>
					<path id="Shape_2_" class="st3" d="M59.4,57.6l18-9.8c3.6-2,3.6-5.2,0-7.2l-18-10L45.8,44L59.4,57.6L59.4,57.6z"/>
					
						<linearGradient id="Shape_7_" gradientUnits="userSpaceOnUse" x1="173.8741" y1="67.7859" x2="173.7312" y2="68.8259" gradientTransform="matrix(45.8 0 0 -86.4 -7940.3999 5921.9995)">
						<stop  offset="0" style="stop-color:#63FFD4"/>
						<stop  offset="0.4854" style="stop-color:#32A0BA"/>
						<stop  offset="0.8349" style="stop-color:#1262A9"/>
						<stop  offset="1" style="stop-color:#064AA2"/>
					</linearGradient>
					<path id="Shape_3_" class="st4" d="M2.6,0.8C1,1.4,0,3,0,5.4v77.2c0,2.4,1,4,2.6,4.6L45.8,44L2.6,0.8L2.6,0.8z"/>
					
						<linearGradient id="Shape_8_" gradientUnits="userSpaceOnUse" x1="175.4496" y1="68.644" x2="174.0234" y2="68.4942" gradientTransform="matrix(56.6 0 0 -43.4 -9860.2002 3041.1997)">
						<stop  offset="0" style="stop-color:#FF4521"/>
						<stop  offset="0.3411" style="stop-color:#D43E65"/>
						<stop  offset="0.7935" style="stop-color:#9F36B9"/>
						<stop  offset="1" style="stop-color:#8A33DB"/>
					</linearGradient>
					<path id="Shape_4_" class="st5" d="M2.6,87.2c1.2,0.4,2.6,0.2,4-0.6l52.6-29L45.8,44L2.6,87.2L2.6,87.2z"/>
				</g>
				<g id="google-play" transform="translate(98.000000, 48.000000)">
					<polyline id="Fill-3" class="st6" points="337.4,68 360,16 352.7,16 342.2,41.9 342.1,41.9 331.3,16 324,16 338.8,49.8 
						330.5,68 337.4,68 					"/>
					<path id="Fill-2" class="st6" d="M306,16c-9,0-13.4,5.4-14.6,8.7l6.2,2.6c1.2-3.3,4.8-5.2,8.6-5.2c5.1,0,9.4,3.3,9.4,8.7v1
						c-1.4-0.8-4.9-2.2-9.8-2.2c-8.4,0-15.8,4.4-15.8,12.4c0,7.4,6.1,11.9,13.4,11.9c6.2,0,9.8-3.1,11.8-6.1h0.3v4.9h6.5V31.3
						C322,21.2,314.8,16,306,16L306,16z M304.5,47.9c-3.5,0-7.5-1.9-7.5-5.7c0-3.3,2.8-7.1,9.9-7.1c5.7,0,8.6,2.3,8.6,2.3
						C315.5,43.3,309.9,47.9,304.5,47.9L304.5,47.9z"/>
					<polygon id="Fill-1" class="st6" points="280,2 286,2 286,54 280,54 					"/>
					<path id="Fill-4" class="st6" d="M257.7,2H240v52h6.7V32.9h11c8.6,0,16.3-6.4,16.3-15.5S266.4,2,257.7,2L257.7,2z M257.9,26.5
						h-11.2V8.4h11.2c6,0,9.3,4.9,9.3,9.1C267.2,21.6,263.8,26.5,257.9,26.5L257.9,26.5z"/>
					<path id="Fill-5" class="st6" d="M193,36.3c-0.2-6.8,5.3-10.2,9.3-10.2c3.1,0,5.7,1.5,6.6,3.7L193,36.3L193,36.3z M202.9,54.3
						c8.1,0,12.9-4.9,14.8-7.7l-6.1-4c-2,2.9-4.8,4.8-8.7,4.8c-4,0-6.8-1.8-8.6-5.3l23.8-9.7l-0.8-2c-1.5-3.9-6-11.1-15.2-11.1
						c-9.2,0-16.8,7.1-16.8,17.5C185.2,46.6,192.8,54.3,202.9,54.3L202.9,54.3z"/>
					<polygon id="Path" class="st6" points="173.7,53.2 181.5,53.2 181.5,1.9 173.7,1.9 					"/>
					<path id="Path_1_" class="st6" d="M151.3,19.3c4.2,0,7.6,1.9,9.4,3.9l0,0h0.3v-2.8h7.4v31.4c0,12.9-7.7,18.2-16.9,18.2
						c-8.6,0-13.8-5.7-15.7-10.3l0,0l6.8-2.8c1.2,2.8,4.2,6.2,8.9,6.2c5.9,0,9.5-3.6,9.5-10.3l0,0v-2.5h-0.3c-1.7,2.1-5.1,4-9.4,4
						c-8.9,0-17-7.6-17-17.4C134.2,27,142.4,19.3,151.3,19.3z M151.9,26.2c-5.4,0-9.9,4.5-9.9,10.7c0,6.1,4.5,10.5,9.9,10.5
						c5.3,0,9.5-4.4,9.5-10.5C161.4,30.7,157.2,26.2,151.9,26.2z"/>
					<path id="Path_2_" class="st6" d="M113.2,19.3c9.8,0,17.8,7.4,17.8,17.5c0,10.1-8,17.5-17.8,17.5s-17.8-7.4-17.8-17.5
						C95.3,26.7,103.3,19.3,113.2,19.3z M113.2,26.2c-5.4,0-10,4.3-10,10.6c0,6.2,4.6,10.6,10,10.6c5.4,0,10-4.4,10-10.6
						C123.2,30.5,118.6,26.2,113.2,26.2z"/>
					<path id="Path_3_" class="st6" d="M74.3,19.3c9.8,0,17.8,7.4,17.8,17.5c0,10.1-8,17.5-17.8,17.5s-17.8-7.4-17.8-17.5
						C56.5,26.7,64.5,19.3,74.3,19.3z M74.3,26.2c-5.4,0-10,4.3-10,10.6c0,6.2,4.6,10.6,10,10.6c5.4,0,10-4.4,10-10.6
						C84.3,30.5,79.7,26.2,74.3,26.2z"/>
					<path id="Path_4_" class="st6" d="M28,54.3c8.2,0,14.4-2.6,19.2-7.6c5-4.9,6.5-11.8,6.5-17.4c0-1.7-0.1-3.3-0.4-4.6H28v7.4h18
						c-0.5,4.2-1.9,7.2-4.1,9.3c-2.6,2.6-6.7,5.4-13.9,5.4c-11.1,0-19.8-8.8-19.8-19.7S16.9,7.4,28,7.4c6,0,10.4,2.3,13.6,5.3
						l5.3-5.2C42.4,3.2,36.4,0,28,0C12.8,0,0,12.2,0,27.2C0,42.1,12.8,54.3,28,54.3L28,54.3z"/>
				</g>
				<path id="GET-IT-ON" class="st6" d="M118,20.6c-0.2,0.3-0.6,0.7-1,1s-1,0.7-1.6,1.1s-1.5,0.6-2.4,0.8s-2,0.3-3.3,0.3
					c-1.4,0-2.7-0.2-3.9-0.7c-1.2-0.5-2.2-1.2-3.1-2.1s-1.5-2.1-2-3.4s-0.7-2.9-0.7-4.6v-1.5c0-1.7,0.2-3.3,0.6-4.6s1-2.5,1.8-3.4
					s1.8-1.7,2.9-2.1s2.5-0.7,3.9-0.7c1.4,0,2.6,0.2,3.6,0.5s1.9,0.9,2.6,1.5s1.3,1.4,1.7,2.3s0.7,1.9,0.8,2.9h-3.9
					c-0.1-0.6-0.2-1.1-0.5-1.6s-0.5-0.9-0.9-1.3s-0.8-0.7-1.4-0.9s-1.2-0.3-2-0.3c-0.9,0-1.7,0.2-2.4,0.5s-1.2,0.8-1.7,1.5
					s-0.8,1.5-1,2.4s-0.3,2.1-0.3,3.3V13c0,1.3,0.1,2.4,0.4,3.3s0.7,1.8,1.2,2.4s1.1,1.2,1.8,1.5s1.5,0.5,2.5,0.5
					c0.7,0,1.3,0,1.7-0.1s0.9-0.2,1.2-0.3s0.6-0.3,0.8-0.4s0.4-0.3,0.5-0.5v-4.5h-4.7v-3h8.6V20.6z M135.6,13.4h-9.3v7h10.9v3.2
					h-14.9V0.9h14.8V4h-10.8v6.3h9.3V13.4z M156.8,4h-7.1v19.6h-3.9V4h-7V0.9h18V4z M172,23.6H168V0.9h3.9V23.6z M193.2,4h-7.1v19.6
					h-3.9V4h-7V0.9h18V4z M222.4,12.8c0,1.7-0.2,3.3-0.7,4.6s-1.1,2.5-1.9,3.5s-1.8,1.7-3,2.2s-2.4,0.8-3.8,0.8
					c-1.4,0-2.7-0.3-3.8-0.8s-2.2-1.2-3-2.2s-1.5-2.1-2-3.5s-0.7-2.9-0.7-4.6v-1.2c0-1.7,0.2-3.3,0.7-4.7s1.1-2.5,1.9-3.5
					s1.8-1.7,3-2.2s2.4-0.8,3.8-0.8c1.4,0,2.7,0.3,3.9,0.8s2.2,1.2,3,2.2s1.5,2.1,1.9,3.5s0.7,2.9,0.7,4.7V12.8z M218.4,11.6
					c0-1.3-0.1-2.4-0.4-3.4s-0.6-1.8-1.1-2.4s-1-1.2-1.7-1.5s-1.5-0.5-2.3-0.5c-0.8,0-1.6,0.2-2.3,0.5s-1.3,0.8-1.7,1.5
					s-0.8,1.5-1.1,2.4s-0.4,2.1-0.4,3.4v1.2c0,1.3,0.1,2.4,0.4,3.4s0.6,1.8,1.1,2.5s1.1,1.2,1.7,1.5s1.4,0.5,2.3,0.5
					c1.8,0,3.1-0.7,4-2s1.4-3.3,1.4-5.8V11.6z M244.3,23.6h-4L230.2,7.5v16.1h-4V0.9h4l10.2,16.2V0.9h3.9V23.6z"/>
			</g>
		</g>
	</g>
</g>
</svg>
