<?xml version="1.0" encoding="utf-8"?>
<!-- Generator: Adobe Illustrator 24.0.2, SVG Export Plug-In . SVG Version: 6.00 Build 0)  -->
<svg version="1.1" id="Ebene_1" xmlns="http://www.w3.org/2000/svg" xmlns:xlink="http://www.w3.org/1999/xlink" x="0px" y="0px"
	 viewBox="0 0 180.7 33.4" style="enable-background:new 0 0 180.7 33.4;" xml:space="preserve">
<style type="text/css">
	.st0{fill:#333333;}
	.st1{fill:url(#SVGID_1_);}
	.st2{fill:url(#SVGID_2_);}
	.st3{fill:url(#SVGID_3_);}
	.st4{font-family:'HarabaraMaisBold-HarabaraMaisBold';}
	.st5{font-size:28.1122px;}
	.st6{font-size:6.9574px;}
	.st7{opacity:0.1;}
	.st8{fill:#FFFFFF;}
</style>
<g>
	<g>
		<path class="st0" d="M29,28.4c0,2.1-1.7,3.8-3.8,3.8H3.8c-2.1,0-3.8-1.7-3.8-3.8V7c0-2.1,1.7-3.8,3.8-3.8h21.4
			C27.3,3.2,29,4.9,29,7V28.4z"/>
	</g>
</g>
<g id="Black_2_">
	<g>
		<g>
			<linearGradient id="SVGID_1_" gradientUnits="userSpaceOnUse" x1="10.6585" y1="14.1" x2="18.6192" y2="22.0607">
				<stop  offset="9.430187e-07" style="stop-color:#FF4681"/>
				<stop  offset="0.7392" style="stop-color:#9B44F6"/>
			</linearGradient>
			<path class="st1" d="M16.9,16.1c-0.5,1.5-1.5,2.4-1.7,2.6c-1.1,1.1-1.7,2.3-1.6,3.5c0,0.8,0.3,1.5,0.7,2.1
				c0.2,0.3,0.4,0.6,0.6,0.8c0.2,0.2,0.3,0.3,0.3,0.3l-0.4,0.5h-1.4c-0.2-0.2-0.4-0.5-0.6-0.8c-0.2-0.2-0.3-0.5-0.4-0.8
				c-0.3-0.6-0.4-1.3-0.5-2c-0.1-1.7,0.7-3.3,2.1-4.7l0,0c0,0,0.9-0.8,1.3-2c0.4-1.2,0.2-2.4-0.4-3.6c-0.2-0.3-0.3-0.5-0.5-0.8
				c-0.1-0.1-0.2-0.3-0.3-0.4l0.5-0.4h1.3c0.2,0.3,0.4,0.5,0.5,0.8c0.2,0.3,0.3,0.5,0.4,0.8C17.5,13.6,17.3,15,16.9,16.1z"/>
			<linearGradient id="SVGID_2_" gradientUnits="userSpaceOnUse" x1="2.7345" y1="12.3236" x2="13.7327" y2="23.3218">
				<stop  offset="9.430187e-07" style="stop-color:#FF4681"/>
				<stop  offset="0.7392" style="stop-color:#9B44F6"/>
			</linearGradient>
			<path class="st2" d="M13.1,11.9c-0.1-0.3-0.2-0.5-0.4-0.8c-0.2-0.3-0.3-0.5-0.5-0.8H4.8v15.6h6.4l0.4-0.5c0,0-0.1-0.1-0.3-0.3
				c-0.2-0.2-0.4-0.5-0.6-0.8C10.3,23.7,10,23,10,22.2c0-1.2,0.5-2.4,1.6-3.5c0.2-0.2,1.2-1.1,1.7-2.6C13.7,15,13.8,13.6,13.1,11.9z
				 M11.8,15.5c-0.4,1.2-1.2,2-1.3,2l0,0C9,19,8.3,20.6,8.3,22.2c0,0.7,0.2,1.4,0.5,2H6.4V11.9h4.9C12,13.1,12.2,14.3,11.8,15.5z"/>
			<linearGradient id="SVGID_3_" gradientUnits="userSpaceOnUse" x1="15.527" y1="12.8567" x2="26.4922" y2="23.8219">
				<stop  offset="9.430187e-07" style="stop-color:#FF4681"/>
				<stop  offset="0.7392" style="stop-color:#9B44F6"/>
			</linearGradient>
			<path class="st3" d="M18.2,10.3l-0.5,0.4c0.1,0.1,0.2,0.3,0.3,0.4c0,0,0.1,0.1,0.1,0.1c0,0,0.1,0.1,0.1,0.1c0,0,0.1,0.1,0.1,0.1
				c0,0,0,0,0,0.1c0,0,0,0,0,0.1c0,0,0,0.1,0.1,0.1c0,0,0,0,0,0c0,0,0.1,0.1,0.1,0.1c0.7,1.2,0.8,2.4,0.4,3.6c-0.4,1.2-1.2,2-1.3,2
				l0,0c-1.5,1.5-2.2,3.1-2.1,4.7c0,0.7,0.2,1.4,0.5,2c0.1,0.3,0.3,0.6,0.4,0.8c0.2,0.3,0.4,0.6,0.6,0.8h7.4V10.3H18.2z M22.8,24.2
				h-4.9c-0.3-0.5-0.6-1.3-0.7-2.1c0-1.2,0.5-2.4,1.6-3.5c0.1-0.1,0.4-0.3,0.7-0.7c0.3-0.4,0.7-1.1,1-1.9c0.4-1,0.5-2.5-0.2-4.1h2.4
				V24.2z"/>
		</g>
	</g>
</g>
<text transform="matrix(1 0 0 1 46.3238 23.6144)" class="st0 st4 st5">WAVECOIN</text>
<text transform="matrix(1 0 0 1 52.1989 31.6392)" class="st0 st4 st6">infrastructure for decentralised payments</text>
<g>
	<g>
		<g>
			<g>
				<g>
					<g>
						<g>
							<g>
								<defs>
									<path id="SVGID_4_" d="M14.7,27.7"/>
								</defs>
								<use xlink:href="#SVGID_4_"  style="overflow:visible;fill:#333333;"/>
								<clipPath id="SVGID_5_">
									<use xlink:href="#SVGID_4_"  style="overflow:visible;"/>
								</clipPath>
							</g>
						</g>
					</g>
				</g>
			</g>
		</g>
	</g>
</g>
<g class="st7">
	<path class="st8" d="M18.2,32.2H3.8c-2.1,0-3.8-1.7-3.8-3.8V7c0-2.1,1.7-3.8,3.8-3.8h18"/>
</g>
</svg>
